<?xml version="1.0" encoding="UTF-8" standalone="no"?>
<svg
   width="168"
   height="221"
   viewBox="0 0 168 221"
   fill="none"
   version="1.1"
   id="svg22"
   sodipodi:docname="padlock-logo.svg"
   inkscape:version="1.1 (c4e8f9ed74, 2021-05-24)"
   xmlns:inkscape="http://www.inkscape.org/namespaces/inkscape"
   xmlns:sodipodi="http://sodipodi.sourceforge.net/DTD/sodipodi-0.dtd"
   xmlns="http://www.w3.org/2000/svg"
   xmlns:svg="http://www.w3.org/2000/svg">
  <defs
     id="defs26" />
  <sodipodi:namedview
     id="namedview24"
     pagecolor="#ffffff"
     bordercolor="#666666"
     borderopacity="1.0"
     inkscape:pageshadow="2"
     inkscape:pageopacity="0.0"
     inkscape:pagecheckerboard="0"
     showgrid="false"
     inkscape:zoom="3.0226244"
     inkscape:cx="84.032934"
     inkscape:cy="110.66542"
     inkscape:window-width="2111"
     inkscape:window-height="1359"
     inkscape:window-x="110"
     inkscape:window-y="110"
     inkscape:window-maximized="0"
     inkscape:current-layer="svg22" />
  <path
     d="m 16.049316,25.102772 v -4.526729 c 0,-2.513734 0.411397,-5.028086 1.233575,-7.409927 0.821972,-2.381348 2.055176,-4.6301446 3.68735,-6.588737 C 22.604308,4.6165233 24.625699,2.9639296 26.967333,1.8000046 29.316542,0.63231002 31.904555,0 34.567754,0 c 2.663198,7.8491429e-7 5.251211,0.63231002 7.60038,1.8000046 2.341553,1.163925 4.362943,2.8165187 5.997091,4.7773744 1.632092,1.9585924 2.865422,4.207389 3.687227,6.588737 0.822221,2.381841 1.23374,4.896193 1.23374,7.409927 v 4.526729 h -8.230417 v -4.526729 c 0,-1.621269 -0.266254,-3.226612 -0.783123,-4.724465 C 43.62862,14.565657 43.007635,13.380601 42.236034,12.345626 42.108873,12.17505 41.977599,12.008549 41.842619,11.846369 40.88715,10.699954 39.752998,9.7906162 38.504816,9.1701661 37.256631,8.5497572 35.918818,8.230417 34.567754,8.230417 c -1.351023,0 -2.688836,0.3193402 -3.937061,0.9397491 -1.248184,0.6204501 -2.382336,1.5297879 -3.337682,2.6762029 -0.135143,0.16218 -0.266377,0.328681 -0.393496,0.499257 -0.771435,1.034975 -1.392791,2.220031 -1.836657,3.505952 -0.517035,1.497853 -0.783126,3.103196 -0.783126,4.724465 v 4.526729 z"
     fill="#515159"
     id="path2"
     style="stroke-width:0.411521" />
  <rect
     x="1.8518463"
     y="23.662449"
     width="65.431816"
     height="65.431816"
     rx="15.843553"
     fill="#797885"
     stroke="#515159"
     stroke-width="3.7037"
     id="rect4" />
  <rect
     x="8.6419401"
     y="30.864063"
     width="51.440109"
     height="51.440109"
     rx="11.111063"
     fill="#b3b8c0"
     id="rect6"
     style="stroke-width:0.411521" />
  <path
     d="m 19.341483,30.452542 v -9.876499 c 0,-2.15674 0.35329,-4.307512 1.053411,-6.335734 0.699997,-2.027975 1.743038,-3.921629 3.104473,-5.5553259 1.362544,-1.6350958 3.02904,-2.9903987 4.933311,-3.9368965 1.908798,-0.9488026 3.996731,-1.4559198 6.135076,-1.4559198 2.138344,0 4.226279,0.5071172 6.135077,1.4559198 1.904395,0.9464978 3.570644,2.3018007 4.933188,3.9368965 1.361722,1.6336969 2.404517,3.5273919 3.104514,5.5553259 0.700408,2.028222 1.053493,4.178994 1.053493,6.335734 v 9.876499 h -4.938251 v -9.876499 c 0,-1.621269 -0.266254,-3.226612 -0.783123,-4.724465 -0.02469,-0.07156 -0.0498,-0.142839 -0.07572,-0.213785 C 43.482943,14.224136 42.752082,12.937969 41.84262,11.846369 40.88715,10.699954 39.752998,9.7906162 38.504816,9.1701661 37.256631,8.5497572 35.918818,8.230417 34.567754,8.230417 c -1.351023,0 -2.688836,0.3193402 -3.937061,0.9397491 -1.248184,0.6204501 -2.382336,1.5297879 -3.337682,2.6762029 -0.909667,1.0916 -1.640239,2.377767 -2.154393,3.791424 -0.02581,0.07095 -0.05103,0.142221 -0.07577,0.213784 -0.517035,1.497854 -0.783126,3.103197 -0.783126,4.724465 v 9.8765 z"
     fill="#797885"
     id="path8"
     style="stroke-width:0.411521" />
  <path
     d="m 41.563609,20.576043 c 0,-1.264275 -0.207808,-2.506039 -0.60296,-3.650272 -0.01887,-0.05453 -0.03803,-0.108765 -0.05765,-0.162758 -0.39194,-1.077607 -0.937863,-2.026945 -1.589631,-2.80904 -0.683824,-0.820614 -1.46308,-1.43271 -2.2739,-1.835754 -0.807814,-0.40148 -1.645547,-0.595635 -2.471717,-0.595635 -0.826169,0 -1.663902,0.194154 -2.471718,0.595635 -0.81082,0.403044 -1.590074,1.01514 -2.2739,1.835754 -0.651765,0.782095 -1.197689,1.731433 -1.589622,2.809041 -0.01957,0.05395 -0.03885,0.10819 -0.05765,0.162757 -0.394977,1.144234 -0.60296,2.385998 -0.60296,3.650272 v 4.526729 h -3.292175 v -4.526729 c 0,-1.621269 0.266091,-3.226612 0.783126,-4.724465 0.02473,-0.07156 0.04996,-0.142839 0.07577,-0.213785 0.514154,-1.413657 1.244726,-2.699824 2.154393,-3.791424 0.955346,-1.146415 2.089498,-2.0557523 3.337682,-2.6762024 1.248225,-0.6204089 2.586038,-0.9397491 3.93706,-0.9397491 1.351065,0 2.688878,0.3193402 3.937063,0.9397491 1.248182,0.6204501 2.382334,1.5297874 3.337803,2.6762024 0.909462,1.0916 1.640323,2.377767 2.154312,3.791424 0.02592,0.07095 0.05103,0.142221 0.07572,0.213785 0.516869,1.497853 0.783123,3.103196 0.783123,4.724465 v 4.526729 h -3.292166 z"
     fill="#515159"
     id="path10"
     style="stroke-width:0.411521" />
  <path
     d="m 16.020839,54.732275 h 1.462545 v -1.599172 h 0.810161 c 1.228431,0 2.051761,-0.723452 2.051761,-1.883529 0,-1.146911 -0.80226,-1.90452 -1.999128,-1.90452 h -2.325339 z m 1.462545,-2.735792 V 50.51295 h 0.515553 c 0.512961,0 0.820737,0.273663 0.820737,0.736624 0,0.460492 -0.307776,0.746909 -0.820737,0.746909 z m 4.421503,2.735792 0.31041,-1.031273 h 1.778181 l 0.310412,1.031273 h 1.578265 l -1.778181,-5.387221 h -1.99917 l -1.778181,5.387221 z m 0.641849,-2.125507 0.536624,-1.778181 h 0.04206 l 0.536623,1.778181 z m 6.223389,2.125507 c 1.641392,0 2.683033,-1.010285 2.683033,-2.693406 0,-1.683531 -1.041641,-2.693815 -2.704103,-2.693815 h -2.05176 v 5.387221 z M 28.15984,53.490716 v -2.904104 h 0.515553 c 0.841767,0 1.304728,0.326337 1.304728,1.452257 0,1.12551 -0.462961,1.451847 -1.262628,1.451847 z m 4.26632,1.241559 h 3.640559 V 53.553678 H 33.888704 V 49.345054 H 32.42616 Z m 9.537036,-2.693406 c 0,-1.799579 -1.15732,-2.767477 -2.619865,-2.767477 -1.473082,0 -2.619948,0.967898 -2.619948,2.767477 0,1.788469 1.146866,2.767068 2.619948,2.767068 1.462545,0 2.619865,-0.967898 2.619865,-2.767068 z m -1.504561,0 c 0,0.967898 -0.389299,1.493821 -1.115304,1.493821 -0.726005,0 -1.115304,-0.525923 -1.115304,-1.493821 0,-0.968308 0.389299,-1.494231 1.115304,-1.494231 0.726005,0 1.115304,0.525923 1.115304,1.494231 z m 7.507004,-0.673659 c -0.115643,-1.336209 -1.094234,-2.093818 -2.451431,-2.093818 -1.452257,0 -2.599165,0.967898 -2.599165,2.767477 0,1.791351 1.115632,2.767068 2.599165,2.767068 1.578184,0 2.377769,-1.094235 2.451431,-2.009868 l -1.483533,-0.01025 c -0.07367,0.46008 -0.399999,0.74691 -0.936622,0.74691 -0.712754,0 -1.12551,-0.504935 -1.12551,-1.493821 0,-0.936622 0.399587,-1.494231 1.136211,-1.494231 0.562961,0 0.883945,0.331272 0.925921,0.820571 z m 0.959667,3.367065 h 1.462545 v -1.388883 l 0.484359,-0.631273 1.209872,2.020156 h 1.746493 l -1.862131,-2.988054 1.820158,-2.399167 h -1.70452 l -1.620569,2.17818 h -0.07367 v -2.17818 h -1.462545 z"
     fill="#515159"
     id="path12"
     style="stroke-width:0.411521" />
  <path
     d="m 28.198275,64.758568 h 0.517324 l 0.0044,-0.506582 c 0.949132,-0.07244 1.499337,-0.57654 1.501517,-1.337031 -0.0022,-0.747733 -0.565512,-1.144439 -1.345919,-1.319748 l -0.129292,-0.03044 0.0089,-1.096293 c 0.29152,0.0679 0.469091,0.254321 0.495387,0.53045 h 0.909709 c -0.01095,-0.725511 -0.552385,-1.244849 -1.396331,-1.337031 l 0.0044,-0.515225 h -0.517324 l -0.0044,0.510698 c -0.857116,0.08355 -1.462093,0.600821 -1.457731,1.348143 -0.0022,0.662137 0.464732,1.04156 1.223166,1.223451 l 0.210439,0.05227 -0.01095,1.159665 c -0.357324,-0.0679 -0.598434,-0.287242 -0.622548,-0.653084 h -0.918473 c 0.02189,0.885593 0.602795,1.381064 1.532257,1.462133 z m 0.530493,-1.31769 0.0089,-1.023453 c 0.33975,0.107398 0.523866,0.245268 0.526088,0.495471 -0.0022,0.26502 -0.203872,0.462139 -0.534853,0.527982 z M 28.228976,61.43101 c -0.274033,-0.09424 -0.471315,-0.237037 -0.466913,-0.488887 0,-0.234567 0.166581,-0.416459 0.475678,-0.480245 z m 3.767884,-1.723038 h -1.07629 l 1.378799,2.244435 -1.405096,2.244846 h 1.087238 l 0.920653,-1.532091 h 0.03505 l 0.920695,1.532091 h 1.091642 l -1.400736,-2.244846 1.370035,-2.244435 h -1.071928 l -0.909708,1.530034 h -0.03505 z m 3.76953,4.489281 h 0.949174 v -1.455548 h 0.797897 c 1.032465,0 1.633079,-0.616047 1.633079,-1.51234 0,-0.892177 -0.589667,-1.521393 -1.608963,-1.521393 H 35.76639 Z m 0.949174,-2.216038 V 60.4841 h 0.64008 c 0.54798,0 0.813246,0.297942 0.813246,0.745265 0,0.444854 -0.265266,0.75185 -0.808884,0.75185 z m 3.29439,2.216038 h 2.873813 V 63.41454 h -1.924641 v -3.706568 h -0.949172 z"
     fill="#515159"
     id="path14"
     style="stroke-width:0.411521" />
  <path
     d="M 13.991712,46.090336 H 55.143796"
     stroke="#797885"
     stroke-width="0.20576"
     id="path16" />
  <path
     d="M 13.991712,57.612919 H 55.143796"
     stroke="#797885"
     stroke-width="0.20576"
     id="path18" />
  <path
     d="M 17.283878,66.666379 H 52.263151"
     stroke="#797885"
     stroke-width="0.20576"
     id="path20" />
</svg>
